# xmcd
#
# Track frame offsets:
#  150
#  8647
#  17832
#  30379
#  49724
#  123394
#  134929
#  219414
#  262084
#  266313
#  272286
#  291066
#
# Disc length: 4234 seconds
#
# Revision: 0
# Processed by: cddbd v1.5.1PL2 Copyright (c) Steve Scherf et al.
# Submitted via: Collectorz.com_Music_Collector 6.10
#
DISCID=a810880c
DTITLE=Boesmans, Philippe - Julie ( 2005)
DYEAR=1900
DGENRE=Opéra
TTITLE0=Szene 1
TTITLE1=Szene 2
TTITLE2=Szene 3
TTITLE3=Szene 4
TTITLE4=Szene 5
TTITLE5=Szene 6
TTITLE6=Szene 7
TTITLE7=Szene 8
TTITLE8=Szene 9
TTITLE9=Szene 10
TTITLE10=Szene 11
TTITLE11=Szene 12
EXTD=
EXTT0=
EXTT1=
EXTT2=
EXTT3=
EXTT4=
EXTT5=
EXTT6=
EXTT7=
EXTT8=
EXTT9=
EXTT10=
EXTT11=
PLAYORDER=
